<svg width="40" height="40" viewBox="0 0 40 40" fill="none" xmlns="http://www.w3.org/2000/svg">
<path d="M27.6878 26.9066H25.2902L24.0448 26.3523V24.84C25.7886 23.8793 27.1566 22.3177 27.8685 20.4363H28.937C31.4813 20.4363 33.5513 18.3662 33.5513 15.822C33.5513 14.1791 32.6875 12.7348 31.3909 11.9171V11.3909C31.391 5.10992 26.281 0 20 0C13.719 0 8.60898 5.10992 8.60898 11.391V11.9168C7.31211 12.7345 6.44813 14.1788 6.44813 15.822C6.44813 18.3662 8.51812 20.4363 11.0624 20.4363H12.1314C12.8433 22.3177 14.2113 23.8793 15.9552 24.84V26.346L14.6957 26.9065H12.3121C5.5232 26.9066 0 32.4298 0 39.2188C0 39.6502 0.349766 40 0.78125 40H16.4844C16.9159 40 17.2656 39.6502 17.2656 39.2188C17.2656 38.7873 16.9159 38.4375 16.4844 38.4375H1.59055C1.98008 33.0384 6.37484 28.7319 11.8105 28.4809C11.8085 28.4875 11.8057 28.4937 11.8038 28.5003C11.7405 28.723 11.7791 28.9622 11.9093 29.1536L15.605 34.5867C15.7359 34.7792 15.9459 34.9033 16.1776 34.9252C16.2021 34.9274 16.2266 34.9286 16.2511 34.9286C16.4573 34.9286 16.6562 34.847 16.8034 34.6998L19.993 31.5102L23.1826 34.6998C23.3298 34.847 23.5288 34.9286 23.7349 34.9286C23.7593 34.9286 23.7838 34.9274 23.8084 34.9252C24.0402 34.9033 24.2501 34.7792 24.381 34.5867L28.0768 29.1536C28.207 28.9623 28.2455 28.7229 28.1823 28.5003C28.1803 28.4935 28.1775 28.4872 28.1754 28.4805C33.6176 28.7246 38.0196 33.0339 38.4095 38.4376H23.5156C23.0842 38.4376 22.7344 38.7874 22.7344 39.2188C22.7344 39.6502 23.0842 40.0001 23.5156 40.0001H39.2188C39.6502 40.0001 40 39.6502 40 39.2188C40 32.4298 34.4768 26.9066 27.6878 26.9066ZM26.831 12.1576C25.2259 11.9372 23.7197 11.2977 22.4399 10.2852C22.1594 10.0631 21.7637 10.0602 21.4797 10.278C19.8014 11.5657 17.7938 12.2463 15.6739 12.2463C14.8231 12.2463 13.9842 12.133 13.1716 11.9127V11.5155C13.1716 7.75055 16.2347 4.6875 19.9997 4.6875C23.7647 4.6875 26.8278 7.75055 26.8278 11.5155C26.8279 11.5155 26.8294 12.1366 26.831 12.1576ZM28.937 18.8738H28.4091V12.7702H28.937C30.6198 12.7702 31.9888 14.1391 31.9888 15.822C31.9888 17.5048 30.6198 18.8738 28.937 18.8738ZM20 1.5625C25.3873 1.5625 29.7753 5.91945 29.8273 11.2947C29.5391 11.2381 29.2416 11.2077 28.937 11.2077H28.3841C28.2214 6.7232 24.5232 3.125 19.9997 3.125C15.4762 3.125 11.778 6.7232 11.6153 11.2077H11.0625C10.7581 11.2077 10.4609 11.238 10.1727 11.2946C10.2248 5.91945 14.6128 1.5625 20 1.5625ZM11.5903 18.8738H11.0625C9.37969 18.8738 8.0107 17.5048 8.0107 15.822C8.0107 14.1391 9.37969 12.7701 11.0625 12.7701H11.5904L11.5903 18.8738ZM13.1528 17.4691V13.5207C13.9759 13.712 14.8201 13.8088 15.6739 13.8088C17.9409 13.8088 20.098 13.1397 21.9488 11.8678C23.4035 12.8931 25.0771 13.5297 26.8466 13.7339V17.5112C26.8421 18.2435 26.7221 18.9489 26.5039 19.6101H22.7731C22.4503 18.6973 21.5791 18.0413 20.5572 18.0413H19.5113C18.2155 18.0413 17.1614 19.0955 17.1614 20.3913C17.1614 21.6871 18.2155 22.7413 19.5113 22.7413H20.5572C21.5791 22.7413 22.4504 22.0854 22.7731 21.1726H25.7566C24.5366 23.0625 22.412 24.3162 20 24.3162C16.2245 24.3162 13.1528 21.2447 13.1528 17.4691ZM21.3448 20.3913C21.3448 20.8256 20.9916 21.1788 20.5573 21.1788H19.5114C19.0772 21.1788 18.724 20.8256 18.724 20.3913C18.724 19.957 19.0772 19.6038 19.5114 19.6038H20.5573C20.9915 19.6038 21.3448 19.957 21.3448 20.3913ZM20 25.8787C20.8638 25.8787 21.6973 25.7477 22.4823 25.5047V26.8111L19.993 29.3003L17.5177 26.825V25.5047C18.3027 25.7477 19.1362 25.8787 20 25.8787ZM16.366 32.9274L13.7271 29.0479L16.3593 27.8765L18.8881 30.4053L16.366 32.9274ZM23.62 32.9274L21.0979 30.4053L23.6267 27.8765L26.259 29.0479L23.62 32.9274Z" fill="black"/>
<path d="M20 38.4375C19.7945 38.4375 19.593 38.521 19.4477 38.6664C19.3023 38.8117 19.2188 39.0133 19.2188 39.2188C19.2188 39.4242 19.3023 39.6258 19.4477 39.771C19.593 39.9163 19.7945 40 20 40C20.2055 40 20.407 39.9164 20.5523 39.771C20.6977 39.6258 20.7812 39.4242 20.7812 39.2188C20.7812 39.0133 20.6977 38.8117 20.5523 38.6664C20.407 38.521 20.2055 38.4375 20 38.4375Z" fill="black"/>
</svg>
