<svg width="40" height="40" viewBox="0 0 40 40" fill="none" xmlns="http://www.w3.org/2000/svg">
<g clip-path="url(#clip0_520_3687)">
<path d="M4.5918 9.51978C4.5918 9.24237 4.8866 9.10352 5.1817 9.10352H8.19226C8.47852 9.10352 8.59998 9.40717 8.59998 9.68488C8.59998 10.0056 8.45258 10.2833 8.19226 10.2833H5.94525V11.7497H7.25537C7.51569 11.7497 7.66309 12.0012 7.66309 12.2789C7.66309 12.5132 7.54163 12.7906 7.25537 12.7906H5.94525V15.0291C5.94525 15.3068 5.60681 15.4457 5.26837 15.4457C4.93024 15.4457 4.5918 15.3068 4.5918 15.0291V9.51978Z" fill="black"/>
<path d="M9.06036 9.51123C9.06036 9.29425 9.22516 9.10352 9.47662 9.10352H11.2726C12.4612 9.10352 13.407 9.54602 13.407 10.9602C13.407 11.9319 12.9645 12.4873 12.3572 12.7214L13.4155 14.6388C13.4503 14.691 13.4589 14.7514 13.4589 14.795C13.4589 15.1335 13.0078 15.4979 12.6086 15.4979C12.4353 15.4979 12.2702 15.4283 12.175 15.2461L10.9863 12.9384H10.4135V15.0294C10.4135 15.3068 10.0754 15.4457 9.73694 15.4457C9.3985 15.4457 9.06006 15.3068 9.06006 15.0294V9.51123H9.06036ZM10.4138 10.2833V11.8971H11.2726C11.7584 11.8971 12.0535 11.6975 12.0535 11.0902C12.0535 10.4829 11.7584 10.2833 11.2726 10.2833H10.4138Z" fill="black"/>
<path d="M15.4804 11.7497H16.782C17.0423 11.7497 17.1897 12.0012 17.1897 12.2789C17.1897 12.5132 17.0682 12.7906 16.782 12.7906H15.4804V14.2656H17.8055C18.0659 14.2656 18.2136 14.5433 18.2136 14.8643C18.2136 15.142 18.0921 15.4457 17.8055 15.4457H14.7172C14.4221 15.4457 14.127 15.3068 14.127 15.0291V9.51978C14.127 9.24207 14.4221 9.10352 14.7172 9.10352H17.8055C18.0921 9.10352 18.2136 9.40717 18.2136 9.68457C18.2136 10.0056 18.0659 10.2833 17.8055 10.2833H15.4804V11.7497Z" fill="black"/>
<path d="M20.1577 11.7497H21.4589C21.7192 11.7497 21.8666 12.0012 21.8666 12.2789C21.8666 12.5132 21.7452 12.7906 21.4589 12.7906H20.1577V14.2656H22.4828C22.7431 14.2656 22.8905 14.5433 22.8905 14.8643C22.8905 15.142 22.769 15.4457 22.4828 15.4457H19.3941C19.099 15.4457 18.8042 15.3068 18.8042 15.0291V9.51978C18.8042 9.24207 19.099 9.10352 19.3941 9.10352H22.4828C22.769 9.10352 22.8905 9.40717 22.8905 9.68457C22.8905 10.0056 22.7431 10.2833 22.4828 10.2833H20.1577V11.7497Z" fill="black"/>
<path d="M13.5647 20.0909C13.2376 20.0909 12.9409 19.8788 12.8299 19.5724C12.7157 19.2581 12.8234 18.8925 13.0893 18.6896C13.3352 18.5019 13.6749 18.4784 13.9456 18.6279C14.2385 18.79 14.3954 19.1345 14.3304 19.462C14.259 19.8224 13.9325 20.0909 13.5647 20.0909Z" fill="black"/>
<path d="M10.0321 20.0908H4.14648C3.71497 20.0908 3.36523 19.7411 3.36523 19.3096C3.36523 18.8784 3.71497 18.5283 4.14648 18.5283H10.0321C10.4636 18.5283 10.8134 18.8784 10.8134 19.3096C10.8134 19.7411 10.4636 20.0908 10.0321 20.0908Z" fill="black"/>
<path d="M23.0116 20.0908H17.126C16.6945 20.0908 16.3447 19.7411 16.3447 19.3096C16.3447 18.8784 16.6945 18.5283 17.126 18.5283H23.0116C23.4431 18.5283 23.7928 18.8784 23.7928 19.3096C23.7928 19.7411 23.4431 20.0908 23.0116 20.0908Z" fill="black"/>
<path d="M37.3575 18.5281H36.7624L33.8242 11.937C33.2092 10.5579 31.8362 9.66339 30.3262 9.65851L27.1585 9.64813V7.18658C27.1585 5.5069 25.795 4.14062 24.1193 4.14062H3.03955C1.36353 4.14062 0 5.5069 0 7.18658V31.8176C0 32.2491 0.349731 32.5989 0.78125 32.5989H5.22919C5.77362 34.4821 7.51312 35.8633 9.5694 35.8633C11.6257 35.8633 13.3655 34.4821 13.9096 32.5989H27.3325C27.8766 34.4821 29.6164 35.8633 31.6727 35.8633C33.7289 35.8633 35.4684 34.4821 36.0129 32.5989H39.2188C39.6503 32.5989 40 32.2491 40 31.8176V21.1713C40 19.7141 38.8144 18.5281 37.3575 18.5281ZM38.4375 21.1713V26.8304H27.1585V20.0906H37.3575C37.9529 20.0906 38.4375 20.5756 38.4375 21.1713ZM27.1664 31.0364H14.0756C14.007 30.0296 13.6066 29.1119 12.9834 28.3926H28.2587C27.6352 29.1119 27.2351 30.0296 27.1664 31.0364ZM1.5625 26.8301V23.8159H25.596V26.8301H1.5625ZM30.321 11.221C31.2173 11.2238 32.0322 11.7548 32.3972 12.5732L35.0516 18.5281H27.1585V11.2106L30.321 11.221ZM1.5625 7.18658C1.5625 6.36841 2.22504 5.70312 3.03955 5.70312H24.119C24.9335 5.70312 25.596 6.36871 25.596 7.18658V22.2534H1.5625V7.18658ZM1.5625 28.3926H6.1554C5.53223 29.1119 5.13184 30.0296 5.06317 31.0364H1.5625V28.3926ZM9.5694 34.3008C7.94037 34.3008 6.6153 32.9758 6.6153 31.3467C6.6153 29.718 7.94037 28.3926 9.5694 28.3926C11.1984 28.3926 12.5235 29.718 12.5235 31.3467C12.5235 32.9758 11.1984 34.3008 9.5694 34.3008ZM31.6727 34.3008C30.0436 34.3008 28.7183 32.9758 28.7183 31.3467C28.7183 29.718 30.0436 28.3926 31.6727 28.3926C33.3017 28.3926 34.6268 29.718 34.6268 31.3467C34.6268 32.9758 33.3014 34.3008 31.6727 34.3008ZM38.4375 31.0364H36.1786C36.1099 30.0296 35.7098 29.1119 35.0867 28.3926H38.4375V31.0364Z" fill="black"/>
</g>
<defs>
<clipPath id="clip0_520_3687">
<rect width="40" height="40" fill="white"/>
</clipPath>
</defs>
</svg>
