<svg width="18" height="17" viewBox="0 0 18 17" fill="none" xmlns="http://www.w3.org/2000/svg">
<path d="M8.99984 16.1578C8.74031 16.1578 8.48915 16.1244 8.27985 16.049C5.08177 14.9523 0 11.0593 0 5.30781C0 2.37763 2.36926 0 5.2827 0C6.69755 0 8.02032 0.552548 8.99984 1.54044C9.97935 0.552548 11.3021 0 12.717 0C15.6304 0 17.9997 2.386 17.9997 5.30781C17.9997 11.0677 12.9179 14.9523 9.71982 16.049C9.51053 16.1244 9.25937 16.1578 8.99984 16.1578ZM5.2827 1.25579C3.06413 1.25579 1.25579 3.0725 1.25579 5.30781C1.25579 11.0258 6.75616 14.2072 8.69008 14.8686C8.84077 14.9188 9.16728 14.9188 9.31797 14.8686C11.2435 14.2072 16.7523 11.0342 16.7523 5.30781C16.7523 3.0725 14.9439 1.25579 12.7254 1.25579C11.4528 1.25579 10.2724 1.8502 9.51053 2.87995C9.27611 3.19808 8.74031 3.19808 8.50589 2.87995C7.7273 1.84183 6.55523 1.25579 5.2827 1.25579Z" fill="white"/>
</svg>
