<svg width="40" height="40" viewBox="0 0 40 40" fill="none" xmlns="http://www.w3.org/2000/svg">
<g clip-path="url(#clip0_520_3653)">
<path d="M21.6255 35.3125H18.3745C17.943 35.3125 17.5933 35.6623 17.5933 36.0938C17.5933 36.5252 17.943 36.875 18.3745 36.875H21.6255C22.057 36.875 22.4068 36.5252 22.4068 36.0938C22.4068 35.6623 22.057 35.3125 21.6255 35.3125Z" fill="black"/>
<path d="M35.625 6.25008H30.9375V4.55312C31.8468 4.23063 32.5 3.36227 32.5 2.34375C32.5 1.05141 31.4486 0 30.1562 0H9.84375C8.55141 0 7.5 1.05141 7.5 2.34383C7.5 3.36227 8.1532 4.23063 9.0625 4.55312V6.25008H4.375C3.94352 6.25008 3.59375 6.59992 3.59375 7.03133V12.5001C3.59375 15.9463 6.3975 18.7501 9.84375 18.7501H10.5043C10.6545 19.0118 10.8149 19.2688 10.9877 19.5195C12.0935 21.1247 13.586 22.3938 15.3291 23.222C15.3185 23.312 15.3125 23.4034 15.3125 23.4963C15.3125 24.5909 16.067 25.5124 17.083 25.7688C16.1443 28.8966 14.4761 32.1875 12.5 32.1875H10.625C10.231 32.1875 9.89867 32.4809 9.84977 32.8719L9.06852 39.1219C9.0407 39.3442 9.10977 39.5678 9.25805 39.7358C9.40633 39.9038 9.61969 40 9.84375 40H30.1562C30.3803 40 30.5937 39.9038 30.742 39.7358C30.8902 39.5678 30.9593 39.3441 30.9315 39.1219L30.1502 32.8719C30.1014 32.4809 29.7691 32.1875 29.375 32.1875H27.5C26.304 32.1875 25.2934 30.9316 24.6563 29.878C23.8376 28.5241 23.2658 26.9292 22.9171 25.7687C23.9332 25.5123 24.6875 24.5907 24.6875 23.4962C24.6875 23.4034 24.6815 23.312 24.6709 23.222C26.4143 22.3937 27.907 21.1242 29.0129 19.5187C29.1854 19.2683 29.3457 19.0116 29.4957 18.7501H30.1562C33.6025 18.7501 36.4062 15.9463 36.4062 12.5001V7.03133C36.4062 6.59992 36.0565 6.25008 35.625 6.25008ZM5.15625 12.5001V7.81258H9.0625V13.3399C9.0625 14.6665 9.30313 15.9645 9.76539 17.1856C7.2168 17.1434 5.15625 15.0585 5.15625 12.5001ZM29.2712 38.4375H10.7288L11.3147 33.75H28.6853L29.2712 38.4375ZM24.4202 32.1875H15.5799C15.9595 31.7714 16.3256 31.273 16.6772 30.6924C17.6758 29.0432 18.3313 27.1002 18.6898 25.8399H21.3102C21.6691 27.1015 22.3233 29.0396 23.3193 30.6866C23.672 31.2697 24.0392 31.77 24.4202 32.1875ZM22.3438 24.2774H17.6562C17.2255 24.2774 16.875 23.927 16.875 23.4962C16.875 23.0654 17.2255 22.7149 17.6562 22.7149H22.3438C22.7745 22.7149 23.125 23.0654 23.125 23.4962C23.125 23.927 22.7745 24.2774 22.3438 24.2774ZM23.9803 21.8206C23.5576 21.4077 22.98 21.1524 22.3438 21.1524H17.6562C17.02 21.1524 16.4425 21.4077 16.0197 21.8206C12.7259 20.2697 10.625 16.997 10.625 13.3399V4.6875H16.4841C16.9156 4.6875 17.2654 4.33766 17.2654 3.90625C17.2654 3.47484 16.9156 3.125 16.4841 3.125H9.84375C9.41297 3.125 9.0625 2.77453 9.0625 2.34375C9.0625 1.91297 9.41297 1.5625 9.84375 1.5625H30.1562C30.587 1.5625 30.9375 1.91297 30.9375 2.34383C30.9375 2.77461 30.587 3.125 30.1562 3.125H23.5154C23.0839 3.125 22.7341 3.47484 22.7341 3.90625C22.7341 4.33766 23.0839 4.6875 23.5154 4.6875H29.375V13.3399C29.375 16.9968 27.274 20.2697 23.9803 21.8206ZM34.8438 12.5001C34.8438 15.0585 32.7832 17.1434 30.2346 17.1856C30.6969 15.9645 30.9375 14.6665 30.9375 13.3399V7.81258H34.8438V12.5001Z" fill="black"/>
<path d="M23.9916 10.1877L22.2394 9.87727L21.3692 8.27657C21.3692 8.27649 21.3692 8.27634 21.3691 8.27626C21.2231 8.0079 21.0031 7.79001 20.7332 7.6461C20.3656 7.45009 19.9438 7.40899 19.5453 7.53017C19.1468 7.65149 18.8194 7.92071 18.6232 8.28852L17.7867 9.85892L16.0294 10.1856C15.7145 10.2361 15.4267 10.3797 15.1959 10.6015C14.8956 10.8905 14.7257 11.2791 14.7176 11.6959C14.7095 12.1126 14.8642 12.5076 15.1538 12.8084L16.3897 14.0904L16.163 15.8191C16.1021 16.1491 16.1475 16.4823 16.2949 16.785C16.4776 17.1602 16.7954 17.4416 17.1899 17.5777C17.3568 17.6352 17.5291 17.6639 17.7006 17.6639C17.9343 17.6639 18.1668 17.6108 18.3831 17.5056L19.9819 16.7273L21.6274 17.5113C21.9021 17.6424 22.2085 17.6894 22.5135 17.6471C22.9264 17.5901 23.2924 17.3755 23.544 17.0431C23.7956 16.7108 23.9027 16.3002 23.8454 15.8863L23.599 14.1231L24.8073 12.8486C25.0462 12.6178 25.2024 12.3231 25.2598 11.9946C25.4077 11.1462 24.8381 10.3355 23.9916 10.1877ZM23.6871 11.759L22.2062 13.321C22.0426 13.4935 21.9665 13.7312 21.9994 13.9666L22.2998 16.1008L20.3141 15.1549C20.0994 15.0527 19.8499 15.0536 19.6361 15.1577L17.6996 16.1016C17.7034 16.0831 17.7066 16.0645 17.709 16.0458L17.9877 13.9206C18.0187 13.6849 17.9406 13.4479 17.7756 13.2768L16.2773 11.7282C16.2861 11.7269 16.2949 11.7254 16.3037 11.7238L18.4418 11.3264C18.6756 11.2829 18.8768 11.1355 18.9886 10.9256L19.9979 9.02587L21.0462 10.9542C21.1597 11.1631 21.3622 11.3089 21.5963 11.3503L23.721 11.7252C23.7095 11.7361 23.6981 11.7474 23.6871 11.759Z" fill="black"/>
<path d="M20.0002 4.6875C20.4317 4.6875 20.7815 4.33766 20.7815 3.90625C20.7815 3.47484 20.4317 3.125 20.0002 3.125H19.9997C19.5682 3.125 19.2188 3.47484 19.2188 3.90625C19.2188 4.33766 19.5688 4.6875 20.0002 4.6875Z" fill="black"/>
<g clip-path="url(#clip1_520_3653)">
<path d="M21.6255 35.3125H18.3745C17.943 35.3125 17.5933 35.6623 17.5933 36.0938C17.5933 36.5252 17.943 36.875 18.3745 36.875H21.6255C22.057 36.875 22.4068 36.5252 22.4068 36.0938C22.4068 35.6623 22.057 35.3125 21.6255 35.3125Z" fill="black"/>
<path d="M35.625 6.25008H30.9375V4.55312C31.8468 4.23063 32.5 3.36227 32.5 2.34375C32.5 1.05141 31.4486 0 30.1562 0H9.84375C8.55141 0 7.5 1.05141 7.5 2.34383C7.5 3.36227 8.1532 4.23063 9.0625 4.55312V6.25008H4.375C3.94352 6.25008 3.59375 6.59992 3.59375 7.03133V12.5001C3.59375 15.9463 6.3975 18.7501 9.84375 18.7501H10.5043C10.6545 19.0118 10.8149 19.2688 10.9877 19.5195C12.0935 21.1247 13.586 22.3938 15.3291 23.222C15.3185 23.312 15.3125 23.4034 15.3125 23.4963C15.3125 24.5909 16.067 25.5124 17.083 25.7688C16.1443 28.8966 14.4761 32.1875 12.5 32.1875H10.625C10.231 32.1875 9.89867 32.4809 9.84977 32.8719L9.06852 39.1219C9.0407 39.3442 9.10977 39.5678 9.25805 39.7358C9.40633 39.9038 9.61969 40 9.84375 40H30.1562C30.3803 40 30.5937 39.9038 30.742 39.7358C30.8902 39.5678 30.9593 39.3441 30.9315 39.1219L30.1502 32.8719C30.1014 32.4809 29.7691 32.1875 29.375 32.1875H27.5C26.304 32.1875 25.2934 30.9316 24.6563 29.878C23.8376 28.5241 23.2658 26.9292 22.9171 25.7687C23.9332 25.5123 24.6875 24.5907 24.6875 23.4962C24.6875 23.4034 24.6815 23.312 24.6709 23.222C26.4143 22.3937 27.907 21.1242 29.0129 19.5187C29.1854 19.2683 29.3457 19.0116 29.4957 18.7501H30.1562C33.6025 18.7501 36.4062 15.9463 36.4062 12.5001V7.03133C36.4062 6.59992 36.0565 6.25008 35.625 6.25008ZM5.15625 12.5001V7.81258H9.0625V13.3399C9.0625 14.6665 9.30313 15.9645 9.76539 17.1856C7.2168 17.1434 5.15625 15.0585 5.15625 12.5001ZM29.2712 38.4375H10.7288L11.3147 33.75H28.6853L29.2712 38.4375ZM24.4202 32.1875H15.5799C15.9595 31.7714 16.3256 31.273 16.6772 30.6924C17.6758 29.0432 18.3313 27.1002 18.6898 25.8399H21.3102C21.6691 27.1015 22.3233 29.0396 23.3193 30.6866C23.672 31.2697 24.0392 31.77 24.4202 32.1875ZM22.3438 24.2774H17.6562C17.2255 24.2774 16.875 23.927 16.875 23.4962C16.875 23.0654 17.2255 22.7149 17.6562 22.7149H22.3438C22.7745 22.7149 23.125 23.0654 23.125 23.4962C23.125 23.927 22.7745 24.2774 22.3438 24.2774ZM23.9803 21.8206C23.5576 21.4077 22.98 21.1524 22.3438 21.1524H17.6562C17.02 21.1524 16.4425 21.4077 16.0197 21.8206C12.7259 20.2697 10.625 16.997 10.625 13.3399V4.6875H16.4841C16.9156 4.6875 17.2654 4.33766 17.2654 3.90625C17.2654 3.47484 16.9156 3.125 16.4841 3.125H9.84375C9.41297 3.125 9.0625 2.77453 9.0625 2.34375C9.0625 1.91297 9.41297 1.5625 9.84375 1.5625H30.1562C30.587 1.5625 30.9375 1.91297 30.9375 2.34383C30.9375 2.77461 30.587 3.125 30.1562 3.125H23.5154C23.0839 3.125 22.7341 3.47484 22.7341 3.90625C22.7341 4.33766 23.0839 4.6875 23.5154 4.6875H29.375V13.3399C29.375 16.9968 27.274 20.2697 23.9803 21.8206ZM34.8438 12.5001C34.8438 15.0585 32.7832 17.1434 30.2346 17.1856C30.6969 15.9645 30.9375 14.6665 30.9375 13.3399V7.81258H34.8438V12.5001Z" fill="black"/>
<path d="M23.9916 10.1877L22.2394 9.87727L21.3692 8.27657C21.3692 8.27649 21.3692 8.27634 21.3691 8.27626C21.2231 8.0079 21.0031 7.79001 20.7332 7.6461C20.3656 7.45009 19.9438 7.40899 19.5453 7.53017C19.1468 7.65149 18.8194 7.92071 18.6232 8.28852L17.7867 9.85892L16.0294 10.1856C15.7145 10.2361 15.4267 10.3797 15.1959 10.6015C14.8956 10.8905 14.7257 11.2791 14.7176 11.6959C14.7095 12.1126 14.8642 12.5076 15.1538 12.8084L16.3897 14.0904L16.163 15.8191C16.1021 16.1491 16.1475 16.4823 16.2949 16.785C16.4776 17.1602 16.7954 17.4416 17.1899 17.5777C17.3568 17.6352 17.5291 17.6639 17.7006 17.6639C17.9343 17.6639 18.1668 17.6108 18.3831 17.5056L19.9819 16.7273L21.6274 17.5113C21.9021 17.6424 22.2085 17.6894 22.5135 17.6471C22.9264 17.5901 23.2924 17.3755 23.544 17.0431C23.7956 16.7108 23.9027 16.3002 23.8454 15.8863L23.599 14.1231L24.8073 12.8486C25.0462 12.6178 25.2024 12.3231 25.2598 11.9946C25.4077 11.1462 24.8381 10.3355 23.9916 10.1877ZM23.6871 11.759L22.2062 13.321C22.0426 13.4935 21.9665 13.7312 21.9994 13.9666L22.2998 16.1008L20.3141 15.1549C20.0994 15.0527 19.8499 15.0536 19.6361 15.1577L17.6996 16.1016C17.7034 16.0831 17.7066 16.0645 17.709 16.0458L17.9877 13.9206C18.0187 13.6849 17.9406 13.4479 17.7756 13.2768L16.2773 11.7282C16.2861 11.7269 16.2949 11.7254 16.3037 11.7238L18.4418 11.3264C18.6756 11.2829 18.8768 11.1355 18.9886 10.9256L19.9979 9.02587L21.0462 10.9542C21.1597 11.1631 21.3622 11.3089 21.5963 11.3503L23.721 11.7252C23.7095 11.7361 23.6981 11.7474 23.6871 11.759Z" fill="black"/>
<path d="M20.0002 4.6875C20.4317 4.6875 20.7815 4.33766 20.7815 3.90625C20.7815 3.47484 20.4317 3.125 20.0002 3.125H19.9997C19.5682 3.125 19.2188 3.47484 19.2188 3.90625C19.2188 4.33766 19.5688 4.6875 20.0002 4.6875Z" fill="black"/>
</g>
</g>
<defs>
<clipPath id="clip0_520_3653">
<rect width="40" height="40" fill="white"/>
</clipPath>
<clipPath id="clip1_520_3653">
<rect width="40" height="40" fill="white"/>
</clipPath>
</defs>
</svg>
