<svg width="40" height="40" viewBox="0 0 40 40" fill="none" xmlns="http://www.w3.org/2000/svg">
<g clip-path="url(#clip0_520_3671)">
<path d="M39.2185 25.4688H0.781035C-0.255527 25.51 -0.254746 26.9904 0.781035 27.0312H4.64033C7.34447 33.7309 12.3054 37.9658 19.7977 39.9734C19.9302 40.0088 20.0696 40.0088 20.2021 39.9734C27.6947 37.9657 32.6558 33.7308 35.3599 27.0312H39.2185C40.2551 26.9899 40.2543 25.5097 39.2185 25.4688ZM30.2042 27.0312C29.9956 27.4298 29.7759 27.8137 29.547 28.1788C27.4533 31.5205 24.3289 33.8036 19.9997 35.1531C15.6706 33.8036 12.5461 31.5205 10.4524 28.1788C10.2235 27.8137 10.0038 27.4299 9.79525 27.0313H30.2042V27.0312ZM19.9998 38.4092C13.3491 36.577 8.86869 32.8489 6.33455 27.0312H8.05025C8.37963 27.7271 8.74182 28.3913 9.12846 29.0084C11.4679 32.7423 14.9503 35.2642 19.7744 36.7183C19.9214 36.7626 20.0782 36.7626 20.2253 36.7183C25.0495 35.2643 28.5318 32.7423 30.8713 29.0084C31.2579 28.3913 31.62 27.7271 31.9494 27.0312H33.6657C31.1315 32.8488 26.6509 36.5769 19.9998 38.4092Z" fill="black"/>
<path d="M0.781064 14.5312H39.2186C40.2551 14.4899 40.2543 13.0097 39.2186 12.9688H37.9054C37.9478 11.8414 37.9684 10.6596 37.9684 9.375C37.9684 8.94352 37.6186 8.59375 37.1872 8.59375C32.8794 8.59375 29.3748 5.08906 29.3748 0.78125C29.3748 0.349766 29.025 0 28.5936 0H11.4061C10.9746 0 10.6248 0.349766 10.6248 0.78125C10.6248 5.08906 7.1202 8.59375 2.81239 8.59375C2.38091 8.59375 2.03114 8.94352 2.03114 9.375C2.03114 10.6613 2.05177 11.843 2.09403 12.9688H0.781064C-0.255576 13.01 -0.254717 14.4904 0.781064 14.5312ZM3.59614 10.1237C8.1427 9.74594 11.7781 6.1093 12.1551 1.5625H27.8445C28.2215 6.1093 31.8568 9.74594 36.4035 10.1237C36.3968 11.1255 36.3764 12.0652 36.3417 12.9688H34.7812C34.7922 12.6801 34.8018 12.3863 34.8097 12.0902C34.8194 11.732 34.5841 11.4131 34.239 11.3167C30.568 10.2913 27.6574 7.37211 26.643 3.69828C26.5495 3.35961 26.2413 3.125 25.8899 3.125H23.5151C22.4786 3.16633 22.4793 4.64656 23.5151 4.6875H25.3104C26.5398 8.42078 29.502 11.3955 33.2296 12.6411C33.2258 12.751 33.2218 12.8602 33.2176 12.9688H6.782C6.77778 12.8602 6.7738 12.751 6.76997 12.6411C10.4975 11.3955 13.4597 8.42078 14.6893 4.6875H16.484C17.5205 4.64625 17.5197 3.16586 16.484 3.125H14.1097C13.7583 3.125 13.4501 3.35961 13.3566 3.69828C12.3422 7.37211 9.43161 10.2914 5.76067 11.3167C5.4156 11.4131 5.18028 11.7319 5.18989 12.0901C5.19778 12.3861 5.20731 12.6799 5.21833 12.9687H3.65763C3.6231 12.0662 3.60278 11.1266 3.59614 10.1237Z" fill="black"/>
<path d="M20 4.6875C21.0365 4.64625 21.0357 3.16586 20 3.125H19.9995C18.9629 3.16641 18.9643 4.64672 20 4.6875Z" fill="black"/>
<path d="M12.6606 23.906C13.0921 23.906 13.4419 23.5563 13.4419 23.1248V21.4283C14.3513 21.1059 15.0044 20.237 15.0044 19.2185V16.8748C14.9631 15.8382 13.4828 15.839 13.4419 16.8748V19.2185C13.3988 20.2552 11.922 20.2543 11.8794 19.2185V16.8748C11.8381 15.8382 10.3578 15.839 10.3169 16.8748V19.2185C10.3169 20.237 10.97 21.1059 11.8794 21.4283V23.1248C11.8794 23.5563 12.2292 23.906 12.6606 23.906Z" fill="black"/>
<path d="M19.6919 17.6562C20.7285 17.615 20.7278 16.1346 19.6919 16.0938H16.9575C16.526 16.0938 16.1763 16.4435 16.1763 16.875V23.125C16.1763 23.5565 16.526 23.9062 16.9575 23.9062H19.6919C20.7285 23.865 20.7278 22.3846 19.6919 22.3438H17.7388V20.7812H18.5981C19.6347 20.74 19.6339 19.2596 18.5981 19.2188H17.7388V17.6562H19.6919Z" fill="black"/>
<path d="M25.3955 23.9059C25.8269 23.9059 26.1768 23.5561 26.1768 23.1246V18.4371C26.0476 15.327 21.6172 15.3295 21.4893 18.4371V23.1246C21.5305 24.1612 23.0108 24.1604 23.0518 23.1246V21.562H24.6143V23.1246C24.6143 23.5561 24.9641 23.9059 25.3955 23.9059ZM23.0518 19.9995V18.4371C23.0948 17.4004 24.5716 17.4013 24.6143 18.4371V19.9995H23.0518Z" fill="black"/>
<path d="M32.0362 18.4375C32.0362 17.1452 30.9848 16.0938 29.6924 16.0938H28.1299C27.6985 16.0938 27.3486 16.4435 27.3486 16.875V23.125C27.3899 24.1616 28.8702 24.1608 28.9111 23.125V20.7812H29.2096L30.5562 23.4744C30.7499 23.8642 31.2268 24.015 31.6044 23.8238C31.9903 23.6308 32.1467 23.1615 31.9538 22.7755L30.8136 20.4952C31.5414 20.0971 32.0362 19.324 32.0362 18.4375ZM28.9111 17.6562H29.6924C30.7234 17.6984 30.7311 19.1644 29.7021 19.2186C29.6932 19.2184 29.6843 19.2185 29.6753 19.2188H28.9112V17.6562H28.9111Z" fill="black"/>
<path d="M35.4676 22.2851C35.2804 22.3626 35.0757 22.3633 34.8912 22.2868L34.4759 22.1148C34.0771 21.9498 33.6203 22.139 33.4551 22.5376C33.29 22.9362 33.4793 23.3933 33.8779 23.5583L34.2933 23.7304C35.4318 24.2295 36.8685 23.6334 37.3198 22.4767C37.8086 21.2967 37.2463 19.939 36.0662 19.4501L35.2354 19.1061C34.8612 18.9604 34.6658 18.4885 34.8274 18.1209C34.9038 17.9365 35.0489 17.7922 35.236 17.7147C35.4233 17.6372 35.628 17.6366 35.8124 17.713L36.2278 17.885C36.6263 18.0501 37.0834 17.8609 37.2485 17.4622C37.4136 17.0635 37.2242 16.6065 36.8256 16.4415L36.4102 16.2694C35.8401 16.0333 35.2107 16.0339 34.638 16.2711C34.0652 16.5084 33.6198 16.9531 33.3838 17.523C33.1476 18.0931 33.1481 18.7225 33.3854 19.2953C33.6227 19.868 34.0673 20.3135 34.6373 20.5497L35.4681 20.8937C35.8522 21.0528 36.0352 21.4947 35.8761 21.8789C35.7998 22.0633 35.6547 22.2076 35.4676 22.2851Z" fill="black"/>
<path d="M4.84793 16.0938H3.28543C2.24887 16.135 2.24965 17.6154 3.28543 17.6563H4.84793C5.8848 17.6995 5.88371 19.1761 4.84793 19.2188C4.41645 19.2188 4.06668 19.5686 4.06668 20.0001C4.06668 20.4316 4.41645 20.7813 4.84793 20.7813C5.8841 20.824 5.88426 22.3011 4.84793 22.3438H3.28543C2.24887 22.3851 2.24965 23.8655 3.28543 23.9063H4.84793C6.86645 23.9134 7.93715 21.4778 6.5934 20.0001C7.9377 18.5217 6.86551 16.0864 4.84793 16.0938Z" fill="black"/>
</g>
<defs>
<clipPath id="clip0_520_3671">
<rect width="40" height="40" fill="white"/>
</clipPath>
</defs>
</svg>
